44<svg xmlns="http://www.w3.org/2000/svg" version="1.1" xmlns:xlink="http://www.w3.org/1999/xlink" xmlns:svgjs="http://svgjs.dev/svgjs" width="1000" height="623" viewBox="0 0 1000 623"><g transform="matrix(1,0,0,1,-0.6060606060606233,0.2522267206477409)"><svg viewBox="0 0 396 247" data-background-color="#a437db" preserveAspectRatio="xMidYMid meet" height="623" width="1000" xmlns="http://www.w3.org/2000/svg" xmlns:xlink="http://www.w3.org/1999/xlink"><g id="tight-bounds" transform="matrix(1,0,0,1,0.2400000000000091,-0.09999999999999432)"><svg viewBox="0 0 395.52 247.2" height="247.2" width="395.52"><g><svg></svg></g><g><svg viewBox="0 0 395.52 247.2" height="247.2" width="395.52"><g><path d="M55.039 247.2l62.151-107.649 0 13.135-50.567 87.586h262.274l-50.567-87.586v-13.135l62.151 107.649zM197.76 0l26.403 45.732-7.583 0-18.82-32.596-18.82 32.596-7.583 0z" fill="#b10dc9" fill-rule="nonzero" stroke="none" stroke-width="1" stroke-linecap="butt" stroke-linejoin="miter" stroke-miterlimit="10" stroke-dasharray="" stroke-dashoffset="0" font-family="none" font-weight="none" font-size="none" text-anchor="none" style="mix-blend-mode: normal" data-fill-palette-color="tertiary"></path></g><g transform="matrix(1,0,0,1,139.43845714285715,67.98)"><svg viewBox="0 0 116.6430857142857 111.23999999999998" height="111.23999999999998" width="116.6430857142857"><g><svg viewBox="0 0 116.6430857142857 111.23999999999998" height="111.23999999999998" width="116.6430857142857"><g><svg viewBox="0 0 116.6430857142857 111.23999999999998" height="111.23999999999998" width="116.6430857142857"><g><svg viewBox="0 0 116.6430857142857 111.23999999999998" height="111.23999999999998" width="116.6430857142857"><g><svg viewBox="0 0 116.6430857142857 111.23999999999998" height="111.23999999999998" width="116.6430857142857"><g><svg viewBox="0 0 116.6430857142857 111.23999999999998" height="111.23999999999998" width="116.6430857142857"><g transform="matrix(1,0,0,1,0,0)"><svg width="116.6430857142857" viewBox="-0.05 -35 36.699999999999996 35" height="111.23999999999998" data-palette-color="#ffffff"><path d="M31.4 0L27.55-8.75 8.95-8.75 5.1 0-0.05 0 15.8-35 20.75-35 36.65 0 31.4 0ZM10.7-12.75L25.8-12.75 18.25-29.9 10.7-12.75Z" opacity="1" transform="matrix(1,0,0,1,0,0)" fill="#ffffff" class="undefined-text-0" data-fill-palette-color="primary" id="text-0"></path></svg></g></svg></g></svg></g></svg></g></svg></g></svg></g></svg></g></svg></g><defs></defs></svg><rect width="395.52" height="247.2" fill="none" stroke="none" visibility="hidden"></rect></g></svg></g></svg>